<?xml version="1.0" encoding="UTF-8"?>
<svg width="32px" height="32px" viewBox="0 0 32 32" version="1.1" xmlns="http://www.w3.org/2000/svg" xmlns:xlink="http://www.w3.org/1999/xlink">
    <!-- Generator: Sketch 57.1 (83088) - https://sketch.com -->
    <title>键盘图标</title>
    <desc>Created with Sketch.</desc>
    <g id="主页面" stroke="none" stroke-width="1" fill="none" fill-rule="evenodd">
        <g id="评论回复表情" transform="translate(-328.000000, -464.000000)">
            <g id="编组-6" transform="translate(328.000000, 464.000000)">
                <g id="编组-4">
                    <circle id="椭圆形" stroke="#666666" stroke-width="2" cx="16" cy="16" r="15"></circle>
                    <g id="编组-3" transform="translate(8.000000, 11.000000)" stroke="#85C6C5">
                        <rect id="矩形" transform="translate(2.000000, 1.000000) rotate(-90.000000) translate(-2.000000, -1.000000) " x="1.5" y="-0.5" width="1" height="3" rx="0.5"></rect>
                        <rect id="矩形" transform="translate(2.000000, 5.000000) rotate(-90.000000) translate(-2.000000, -5.000000) " x="1.5" y="3.5" width="1" height="3" rx="0.5"></rect>
                        <rect id="矩形" transform="translate(8.000000, 1.000000) rotate(-90.000000) translate(-8.000000, -1.000000) " x="7.5" y="-0.5" width="1" height="3" rx="0.5"></rect>
                        <rect id="矩形" transform="translate(14.000000, 1.000000) rotate(-90.000000) translate(-14.000000, -1.000000) " x="13.5" y="-0.5" width="1" height="3" rx="0.5"></rect>
                        <rect id="矩形" transform="translate(8.000000, 5.000000) rotate(-90.000000) translate(-8.000000, -5.000000) " x="7.5" y="3.5" width="1" height="3" rx="0.5"></rect>
                        <rect id="矩形" transform="translate(8.000000, 9.000000) rotate(-90.000000) translate(-8.000000, -9.000000) " x="7.5" y="5.5" width="1" height="7" rx="0.5"></rect>
                        <rect id="矩形" transform="translate(14.000000, 5.000000) rotate(-90.000000) translate(-14.000000, -5.000000) " x="13.5" y="3.5" width="1" height="3" rx="0.5"></rect>
                    </g>
                </g>
            </g>
        </g>
    </g>
</svg>