<?xml version="1.0" encoding="UTF-8"?>
<svg width="30px" height="30px" viewBox="0 0 30 30" version="1.1" xmlns="http://www.w3.org/2000/svg" xmlns:xlink="http://www.w3.org/1999/xlink">
    <!-- Generator: Sketch 59 (86127) - https://sketch.com -->
    <title>表情</title>
    <desc>Created with Sketch.</desc>
    <g id="主页面" stroke="none" stroke-width="1" fill="none" fill-rule="evenodd">
        <g id="评论-空" transform="translate(-330.000000, -627.000000)">
            <g id="编组-10" transform="translate(330.000000, 627.000000)">
                <g id="编组-9">
                    <path d="M15,30 C23.2842712,30 30,23.2842712 30,15 C30,6.71572875 23.2842712,0 15,0 C6.71572875,0 0,6.71572875 0,15 C0,23.2842712 6.71572875,30 15,30 Z M15,28 C7.82029825,28 2,22.1797017 2,15 C2,7.82029825 7.82029825,2 15,2 C22.1797017,2 28,7.82029825 28,15 C28,22.1797017 22.1797017,28 15,28 Z" id="椭圆形" fill="#666666" fill-rule="nonzero"></path>
                    <rect id="矩形" fill="#85C6C5" x="10" y="10" width="2" height="4" rx="1"></rect>
                    <rect id="矩形" fill="#85C6C5" x="18" y="10" width="2" height="4" rx="1"></rect>
                    <path d="M10.1863795,20.5813963 C11.3294262,22.1810046 12.967417,23 15,23 C17.032583,23 18.6705738,22.1810046 19.8136205,20.5813963 C20.1347168,20.132046 20.0307465,19.5074757 19.5813963,19.1863795 C19.132046,18.8652832 18.5074757,18.9692535 18.1863795,19.4186037 C17.4238818,20.4856621 16.395206,21 15,21 C13.604794,21 12.5761182,20.4856621 11.8136205,19.4186037 C11.4925243,18.9692535 10.867954,18.8652832 10.4186037,19.1863795 C9.96925352,19.5074757 9.86528317,20.132046 10.1863795,20.5813963 Z" id="路径-5" fill="#85C6C5" fill-rule="nonzero"></path>
                </g>
            </g>
        </g>
    </g>
</svg>